<svg width="26" height="26" viewBox="0 0 26 26" fill="none" xmlns="http://www.w3.org/2000/svg">
<path fill-rule="evenodd" clip-rule="evenodd" d="M11.2428 0.558847C12.0172 -0.186282 13.242 -0.186282 14.0163 0.558847L24.6419 10.7833C25.9392 12.0317 25.0556 14.2244 23.2551 14.2244H21.6289V14.2245V23.2245C21.6289 24.3291 20.7335 25.2245 19.6289 25.2245H14.6289V19.2245C14.6289 18.1199 14.032 17.2245 13.2956 17.2245H11.9622C11.2259 17.2245 10.6289 18.1199 10.6289 19.2245V25.2245H5.62891C4.52434 25.2245 3.62891 24.3291 3.62891 23.2245V14.2245V14.2244H2.00402C0.203601 14.2244 -0.680067 12.0317 0.617273 10.7833L11.2428 0.558847Z" fill="#2D4244" fill-opacity="0.75"/>
</svg>
