<svg width="24" height="24" viewBox="0 0 24 24" fill="none" xmlns="http://www.w3.org/2000/svg">
<path fill-rule="evenodd" clip-rule="evenodd" d="M13.3176 0.530988C12.5819 -0.176996 11.4181 -0.176996 10.6824 0.530989L0.586502 10.2458C-0.646166 11.4319 0.193452 13.5154 1.90412 13.5154H3.44801C3.44801 13.5154 3.44801 13.5154 3.44801 13.5154V22.0668C3.44801 23.1163 4.2988 23.9671 5.34831 23.9671H18.6504C19.6999 23.9671 20.5507 23.1163 20.5507 22.0668V13.5154C20.5507 13.5154 20.5507 13.5154 20.5507 13.5154H22.0959C23.8065 13.5154 24.6462 11.4319 23.4135 10.2458L13.3176 0.530988Z" fill="#E3C67F"/>
<path d="M10.0977 18.2661C10.0977 17.2166 10.6649 16.3658 11.3645 16.3658H12.6314C13.3311 16.3658 13.8983 17.2166 13.8983 18.2661V23.967H10.0977V18.2661Z" fill="white"/>
</svg>
