<svg width="31" height="20" viewBox="0 0 31 20" fill="none" xmlns="http://www.w3.org/2000/svg">
<path d="M10.6233 8.06779C13.3003 10.524 17.4114 10.524 20.0883 8.06779L28.8796 0.00145328H1.83203L10.6233 8.06779Z" fill="#E3C67F"/>
<path d="M24.0951 11.3283C22.9545 10.1623 22.9545 8.29863 24.0951 7.13263L30.9992 0.0748171V18.3861L24.0951 11.3283Z" fill="#E3C67F"/>
<path d="M6.9049 11.2535C8.0455 10.0875 8.0455 8.2238 6.9049 7.0578L0.000825733 -1.20363e-05L0.000825733 18.3113L6.9049 11.2535Z" fill="#E3C67F"/>
<path fill-rule="evenodd" clip-rule="evenodd" d="M10.2012 10.2148L1.83203 19.1489H29.3896L20.988 10.1802L18.5966 11.3768C16.7081 12.3218 14.4941 12.3628 12.5719 11.4884L10.5586 10.5726L10.2012 10.2148Z" fill="#E3C67F"/>
</svg>
