<svg width="34" height="21" viewBox="0 0 34 21" fill="none" xmlns="http://www.w3.org/2000/svg">
<path d="M11.9919 9.16301C14.6683 11.6167 18.7766 11.6167 21.4529 9.16301L31.4449 0.00224113H2L11.9919 9.16301Z" fill="#FCF9F2"/>
<path d="M26.0546 12.1394C24.9129 10.9732 24.9129 9.10824 26.0546 7.94203L33.75 0.0814133V20L26.0546 12.1394Z" fill="#FCF9F2"/>
<path d="M7.69543 12.0583C8.83712 10.8921 8.83713 9.02718 7.69543 7.86098L0 0.000358582L0 19.9189L7.69543 12.0583Z" fill="#FCF9F2"/>
<path fill-rule="evenodd" clip-rule="evenodd" d="M11.1108 11.111L2 20.8292H32L22.8538 11.0732L19.9869 12.5067C18.0976 13.4513 15.8828 13.4923 13.9598 12.6182L11.5 11.5001L11.1108 11.111Z" fill="#FCF9F2"/>
</svg>
