<svg width="42" height="40" viewBox="0 0 42 40" fill="none" xmlns="http://www.w3.org/2000/svg">
<path d="M14.8376 1.89902C16.1575 2.49948 17.3178 3.40179 18.2248 4.53313L18.5325 4.91696C18.8435 5.30483 19.1183 5.72041 19.3534 6.15846L20.9161 9.07025C21.3273 9.83655 21.3463 10.7535 20.967 11.5362V11.5362C20.666 12.1575 20.1495 12.6483 19.5137 12.9174L18.1207 13.5069L17.1098 13.8488C16.6498 14.0045 16.2252 14.2496 15.8604 14.5701V14.5701C15.3647 15.0058 15.1405 15.6736 15.2728 16.3202L15.5071 17.4653L15.6622 17.9237C16.693 20.9707 18.5681 23.6623 21.0692 25.685V25.685L21.8942 26.1429C22.5249 26.4931 23.2602 26.6061 23.967 26.4614V26.4614V26.4614C24.678 26.3159 25.3226 25.9438 25.8041 25.4008L26.5103 24.6045C26.5337 24.578 26.5631 24.5568 26.5955 24.5427V24.5427C28.0382 23.9171 29.732 24.2267 30.8479 25.3346L30.9385 25.4244C31.2293 25.7132 31.4943 26.0268 31.7305 26.3616L34.802 30.7166C35.4645 31.656 35.5597 32.8825 35.0503 33.9129V33.9129C34.8525 34.3129 34.5408 34.6453 34.1544 34.8684L31.6851 36.2941L29.411 37.2069C27.9055 37.8112 26.2138 37.7456 24.7596 37.0265V37.0265L24.6561 36.9754C23.2098 36.2603 21.88 35.3305 20.7117 34.2176L18.7857 32.3828C15.2196 28.9856 12.2223 25.0378 9.90814 20.6901L8.58155 18.1978L7.02464 13.2513C6.75876 12.4065 6.59748 11.5323 6.54442 10.6483L6.4085 8.38385C6.3641 7.64425 6.56079 6.9102 6.96904 6.29188V6.29188C7.69884 5.18655 8.70297 4.28951 9.88326 3.68845L13.332 1.93219C13.8027 1.69252 14.3568 1.68031 14.8376 1.89902V1.89902Z" fill="#FCF9F2"/>
</svg>
