<svg xmlns="http://www.w3.org/2000/svg" viewBox="0 0 924.42 105.25"><defs><style>.cls-1{fill:#e3c67f;fill-rule:evenodd;}.cls-2{fill:#fff;}</style></defs><g id="Layer_2" data-name="Layer 2"><g id="Layer_1-2" data-name="Layer 1"><path class="cls-1" d="M0,.23H32.32L76.25,77.65l-18.41,27.6ZM105.47,8.51a4.28,4.28,0,1,0-2.85,0V45.86L78.25.23H45.93l57.84,105,42.31-77.34,0-.07h15.53q11.34,0,18.05,6.6t6.86,18.3q0,11.85-6.86,18.46-6.72,6.45-18.05,6.45H136.94l-16.16,27.6h40.79c11.63,0,17.43-2.1,26.28-6.3a48.26,48.26,0,0,0,20.73-18.3Q216,68.8,216,52.74t-7.46-27.9A47.4,47.4,0,0,0,187.85,6.68C179,2.38,173.2.23,161.57.23H128.43L121.5,14l-6.94,13.8h0l0,.07-9.06,18h0Z"/><path class="cls-2" d="M317.41,99.52v3.6H315.8V91.45h1.61V97.7L324,91.45h2l-5.66,5.29,6.17,6.38h-1.91l-5.27-5.43Zm31-6.27-2.93,6h5.87Zm-3.52,7.12-1.36,2.75h-1.71l5.85-11.67h1.48L355,103.12h-1.73l-1.36-2.75Zm26.24-8.92v11.67h1.61V93.79h.14l7.79,9.33h1.61V91.45h-1.61v9.34h-.14l-7.79-9.34Zm37.21,11.47a7.46,7.46,0,0,0,2.09-1l-1-1a5.75,5.75,0,0,1-1.61.79A6.3,6.3,0,0,1,406,102a5.79,5.79,0,0,1-2.64-.62,5,5,0,0,1-2-1.66,4.05,4.05,0,0,1-.76-2.4,4,4,0,0,1,.76-2.4,5.18,5.18,0,0,1,2-1.69,6,6,0,0,1,2.64-.6,6.25,6.25,0,0,1,1.81.27,6.17,6.17,0,0,1,1.59.77l1-1a7.77,7.77,0,0,0-2.08-1,8.07,8.07,0,0,0-2.43-.35,7.78,7.78,0,0,0-3.39.76,6.72,6.72,0,0,0-2.58,2.15,5.18,5.18,0,0,0-1,3.09,5.09,5.09,0,0,0,1,3.06,6.55,6.55,0,0,0,2.58,2.15,7.67,7.67,0,0,0,3.39.79A8,8,0,0,0,408.34,102.92Zm26.6-1.1h-6.47V97.89h4.9V96.62h-4.9V92.75h6.3v-1.3h-7.91v11.67h8.08Zm24.34,0h-6.1V91.45h-1.61v11.67h7.71Zm22.34-8.57-2.94,6h5.87Zm-3.52,7.12-1.36,2.75H475l5.85-11.67h1.48l5.85,11.67h-1.73l-1.36-2.75Zm30.63-2.68A3.92,3.92,0,0,0,511.1,97a2.12,2.12,0,0,0,.87-1.82,2.16,2.16,0,0,0-.87-1.83,4,4,0,0,0-2.37-.64H506v4.94Zm.41,1.23H506v4.2h-1.61V91.45h4.43a6.35,6.35,0,0,1,2.58.49A3.73,3.73,0,0,1,513,93.27a3.56,3.56,0,0,1,.57,2,3.33,3.33,0,0,1-.76,2.18,4.17,4.17,0,0,1-2.16,1.29l3.66,4.43h-1.75Zm22.93,4.2V91.45h-1.62v11.67Zm22.72-9.87-2.93,6h5.87Zm-3.52,7.12-1.36,2.75H548.2l5.85-11.67h1.48l5.85,11.67h-1.73l-1.36-2.75Zm45.62-8.92v11.67h1.61V93.79h.14l7.79,9.33H608V91.45h-1.61v9.34h-.14l-7.79-9.34Zm39.28,8.25a4.14,4.14,0,0,0,.74-2.41,4.19,4.19,0,0,0-.74-2.42,5,5,0,0,0-2-1.67,5.78,5.78,0,0,0-5.13,0,4.85,4.85,0,0,0-2,1.67,4.07,4.07,0,0,0-.76,2.42,4,4,0,0,0,.76,2.41,4.85,4.85,0,0,0,2,1.67,5.78,5.78,0,0,0,5.13,0A5,5,0,0,0,636.17,99.7Zm1.44-5.51a5.41,5.41,0,0,1,0,6.18,6.7,6.7,0,0,1-2.58,2.15,7.87,7.87,0,0,1-6.79,0,6.63,6.63,0,0,1-2.58-2.15,5.32,5.32,0,0,1,0-6.18,6.61,6.61,0,0,1,2.58-2.14,8,8,0,0,1,6.79,0A6.68,6.68,0,0,1,637.61,94.19ZM663,92.75v-1.3h-9.17v1.3h3.79v10.37h1.61V92.75Zm20.19.5-2.94,6h5.87Zm-3.52,7.12-1.36,2.75h-1.71l5.85-11.67h1.48l5.85,11.67h-1.73l-1.36-2.75Zm30.63-2.68a3.94,3.94,0,0,0,2.37-.65,2.12,2.12,0,0,0,.87-1.82,2.16,2.16,0,0,0-.87-1.83,4,4,0,0,0-2.37-.64h-2.78v4.94Zm.4,1.23h-3.18v4.2h-1.62V91.45h4.43a6.37,6.37,0,0,1,2.59.49,3.79,3.79,0,0,1,1.67,1.33,3.56,3.56,0,0,1,.57,2,3.33,3.33,0,0,1-.76,2.18,4.21,4.21,0,0,1-2.16,1.29l3.65,4.43h-1.75Zm22.93,4.2V91.45H732v11.67Zm22.73-9.87-2.94,6h5.87Zm-3.52,7.12-1.36,2.75h-1.71l5.85-11.67h1.48L763,103.12h-1.73l-1.36-2.75Zm33.95,1.45h-6.1V91.45h-1.61v11.67h7.71Zm16.52-10.37v11.67h1.62V93.79h.13l7.8,9.33h1.61V91.45h-1.61v9.34h-.14l-7.79-9.34Zm33.89,1.8-2.94,6h5.87Zm-3.52,7.12-1.36,2.75h-1.71l5.85-11.67H838l5.85,11.67h-1.73l-1.36-2.75Z"/><path class="cls-2" d="M287,59,274.7,24.74,262.47,59h-9.18L235.18,3.71h13.33l10,32.57L269.68,3.71h10l11.21,32.57L301,3.71H314.3L296.18,59Zm38.84-20.39a10.07,10.07,0,0,0,1.41,5.45,8.82,8.82,0,0,0,3.53,3.48,9.14,9.14,0,0,0,4.7,1.26,9.48,9.48,0,0,0,6.75-2.76,9.94,9.94,0,0,0,2.82-7.43,10.58,10.58,0,0,0-2.82-7.75,9.62,9.62,0,0,0-13.49,0A10.31,10.31,0,0,0,325.85,38.65ZM353.77,27a20.51,20.51,0,0,1,3.29,11.7,20.24,20.24,0,0,1-3.29,11.61,20.58,20.58,0,0,1-8.24,7.2,23.31,23.31,0,0,1-10,2.37,22.7,22.7,0,0,1-9.95-2.37,20.13,20.13,0,0,1-11.61-18.81A20.51,20.51,0,0,1,317.22,27a21.27,21.27,0,0,1,8.32-7.35,21.75,21.75,0,0,1,9.95-2.45,22.33,22.33,0,0,1,10,2.45A21.62,21.62,0,0,1,353.77,27Zm.92,35.8h2.51A13.44,13.44,0,0,0,362,62a4.76,4.76,0,0,0,2.74-2.53,13.16,13.16,0,0,0,.86-5.29V17.94h12.47V55.56c0,6.56-1.57,11.3-4.78,14.23s-8.31,4.5-15.37,4.5h-3.22ZM365.12,6.8a6.46,6.46,0,0,1,2-4.9A6.42,6.42,0,0,1,371.87,0a6.69,6.69,0,0,1,4.86,1.9,6.7,6.7,0,0,1,1.88,4.9,6.74,6.74,0,0,1-1.88,4.9,6.72,6.72,0,0,1-4.86,1.89,6.45,6.45,0,0,1-4.79-1.89A6.49,6.49,0,0,1,365.12,6.8Zm52.15,12.8a20.53,20.53,0,0,0-10.2-2.45,21.65,21.65,0,0,0-9.8,2.45A21.37,21.37,0,0,0,389,26.87a20.44,20.44,0,0,0-3.3,11.7A20.2,20.2,0,0,0,389,50.19a20.53,20.53,0,0,0,8.23,7.19,21.65,21.65,0,0,0,9.8,2.45c7.84,0,13.72-3.24,17.72-9.64l-9.56-4.51a16.65,16.65,0,0,1-3.61,2.45,10.63,10.63,0,0,1-4.39.71,8.87,8.87,0,0,1-4.63-1.26A8.59,8.59,0,0,1,399.07,44a10.07,10.07,0,0,1-1.41-5.45A10.82,10.82,0,0,1,399.07,33a9.3,9.3,0,0,1,3.53-3.64,9.6,9.6,0,0,1,4.63-1.18,13.23,13.23,0,0,1,3.68.47,10,10,0,0,1,2.83,1.58c.86.71,1.33,1.19,1.49,1.26l9.41-4.5A20,20,0,0,0,417.27,19.6ZM432.75,59V17.94h12.39V59ZM432.28,6.8a6.46,6.46,0,0,1,2-4.9A6.42,6.42,0,0,1,439,0a6.63,6.63,0,0,1,4.78,1.9,6.46,6.46,0,0,1,2,4.9,6.49,6.49,0,0,1-2,4.9A6.67,6.67,0,0,1,439,13.59a6.45,6.45,0,0,1-4.79-1.89A6.49,6.49,0,0,1,432.28,6.8Zm33.07,27.26h16.94a7.49,7.49,0,0,0-3.14-4.66,9.75,9.75,0,0,0-5.33-1.58,8.79,8.79,0,0,0-5,1.58A9.54,9.54,0,0,0,465.35,34.06Zm25.33-7.74a21.9,21.9,0,0,1,3.06,11.93,29.08,29.08,0,0,1-.32,4.66H465.27a8.49,8.49,0,0,0,3.53,4.75,11.07,11.07,0,0,0,6.2,1.66,16.6,16.6,0,0,0,4.47-.48,14.88,14.88,0,0,0,3-1c.86-.39,1.56-.63,2-.79l6.82,6.64a20.08,20.08,0,0,1-6.9,4.51,25.83,25.83,0,0,1-9.8,1.66,22.3,22.3,0,0,1-10.2-2.45,19.59,19.59,0,0,1-8.23-7.19,20.51,20.51,0,0,1-3.22-11.54,20.86,20.86,0,0,1,30.19-19.29A18.87,18.87,0,0,1,490.68,26.32Zm40.55-6.72A20.53,20.53,0,0,0,521,17.15a21.65,21.65,0,0,0-9.8,2.45A21.37,21.37,0,0,0,503,26.87a20.44,20.44,0,0,0-3.3,11.7A20.2,20.2,0,0,0,503,50.19a20.53,20.53,0,0,0,8.23,7.19,21.65,21.65,0,0,0,9.8,2.45c7.84,0,13.72-3.24,17.72-9.64l-9.56-4.51a16.89,16.89,0,0,1-3.61,2.45,10.63,10.63,0,0,1-4.39.71,8.87,8.87,0,0,1-4.63-1.26A8.59,8.59,0,0,1,513,44a10.07,10.07,0,0,1-1.41-5.45A10.82,10.82,0,0,1,513,33a9.3,9.3,0,0,1,3.53-3.64,9.6,9.6,0,0,1,4.63-1.18,13.23,13.23,0,0,1,3.68.47,10,10,0,0,1,2.83,1.58c.86.71,1.33,1.19,1.49,1.26L538.6,27A20,20,0,0,0,531.23,19.6Zm48.11-.55a14.76,14.76,0,0,0-7.3-1.9,13.22,13.22,0,0,0-6.19,1.42,16.57,16.57,0,0,0-4.39,3.4,11.4,11.4,0,0,0-2.12,3.4V3.16H547V59h12.39V34.85a6.49,6.49,0,0,1,1.1-2.84,10.35,10.35,0,0,1,2.82-2.77,7,7,0,0,1,4-1.18,7.44,7.44,0,0,1,5.33,2c1.33,1.35,2,3.4,2,6.32V59H587.1V35.49A22.78,22.78,0,0,0,585,25.13,15.17,15.17,0,0,0,579.34,19.05ZM652,39.12A19.73,19.73,0,0,0,653.68,31,16.44,16.44,0,0,0,652,23.39a14,14,0,0,0-5.1-5.61,15.66,15.66,0,0,0-8.16-2.05H631V47h7.68a15.26,15.26,0,0,0,8.24-2.13A13.47,13.47,0,0,0,652,39.12Zm10.9-21.81A26.87,26.87,0,0,1,666.62,31a28.2,28.2,0,0,1-3.68,14.15A27.58,27.58,0,0,1,638.78,59H618.4V3.71h20.38a27.72,27.72,0,0,1,24.16,13.6Zm30.39,30.82,19.61-30.19H675.38V28.85h17.8L673.57,59h38V48.13ZM720.51,59V17.94H732.9V59ZM720,6.8a6.46,6.46,0,0,1,2-4.9A6.38,6.38,0,0,1,726.78,0a6.66,6.66,0,0,1,4.79,1.9,6.46,6.46,0,0,1,2,4.9,6.49,6.49,0,0,1-2,4.9,6.69,6.69,0,0,1-4.79,1.89A6.41,6.41,0,0,1,722,11.7,6.49,6.49,0,0,1,720,6.8Zm33.07,27.26h16.94a7.53,7.53,0,0,0-3.14-4.66,9.78,9.78,0,0,0-5.33-1.58,8.76,8.76,0,0,0-5,1.58A9.48,9.48,0,0,0,753.11,34.06Zm25.33-7.74a22,22,0,0,1,3,11.93,29.1,29.1,0,0,1-.31,4.66H753a8.45,8.45,0,0,0,3.53,4.75,11,11,0,0,0,6.19,1.66,16.6,16.6,0,0,0,4.47-.48,14.45,14.45,0,0,0,3-1c.86-.39,1.57-.63,2-.79L779,53.66A20.3,20.3,0,0,1,769.42,59h.63c-3.14,1.1-5.49,2-7,2.68a10.23,10.23,0,0,0-3.38,2.3,4.18,4.18,0,0,0-1.09,2.84,2.57,2.57,0,0,0,1.25,2.29,4.71,4.71,0,0,0,2.75.87,3.92,3.92,0,0,0,2.27-.55l2.67,5.22A14.27,14.27,0,0,1,763.77,76a20.39,20.39,0,0,1-4.94.55,17.74,17.74,0,0,1-8.47-1.89,6.09,6.09,0,0,1-3.6-5.77,6.82,6.82,0,0,1,2.82-5.77A27.84,27.84,0,0,1,757,59.2,22.28,22.28,0,0,1,749,55.48a18.59,18.59,0,0,1-6-6.95,21.11,21.11,0,0,1-2.27-9.88,20.86,20.86,0,0,1,30.19-19.29A18.87,18.87,0,0,1,778.44,26.32ZM819,19.6a20.49,20.49,0,0,0-10.19-2.45A21.62,21.62,0,0,0,799,19.6a21.4,21.4,0,0,0-8.24,7.27,20.51,20.51,0,0,0-3.29,11.7,20.27,20.27,0,0,0,3.29,11.62A20.56,20.56,0,0,0,799,57.38a21.62,21.62,0,0,0,9.8,2.45c7.84,0,13.72-3.24,17.72-9.64l-9.57-4.51a16.87,16.87,0,0,1-3.6,2.45,10.69,10.69,0,0,1-4.4.71,8.86,8.86,0,0,1-4.62-1.26A8.53,8.53,0,0,1,800.79,44a10.07,10.07,0,0,1-1.41-5.45A10.82,10.82,0,0,1,800.79,33a9.23,9.23,0,0,1,3.53-3.64,9.59,9.59,0,0,1,4.62-1.18,13.31,13.31,0,0,1,3.69.47,9.81,9.81,0,0,1,2.82,1.58c.87.71,1.34,1.19,1.49,1.26l9.41-4.5A20,20,0,0,0,819,19.6ZM834.47,59V17.94h12.39V59ZM834,6.8a6.46,6.46,0,0,1,2-4.9A6.38,6.38,0,0,1,840.74,0a6.66,6.66,0,0,1,4.79,1.9,6.46,6.46,0,0,1,2,4.9,6.49,6.49,0,0,1-2,4.9,6.69,6.69,0,0,1-4.79,1.89A6.41,6.41,0,0,1,836,11.7,6.49,6.49,0,0,1,834,6.8Zm32.52,31.85a10.07,10.07,0,0,0,1.41,5.45,8.82,8.82,0,0,0,3.53,3.48,9.14,9.14,0,0,0,4.7,1.26,9.48,9.48,0,0,0,6.75-2.76,9.94,9.94,0,0,0,2.82-7.43,10.58,10.58,0,0,0-2.82-7.75,9.62,9.62,0,0,0-13.49,0A10.31,10.31,0,0,0,866.52,38.65ZM894.43,27a20.44,20.44,0,0,1,3.3,11.7,20.17,20.17,0,0,1-3.3,11.61,20.56,20.56,0,0,1-8.23,7.2,23.31,23.31,0,0,1-10,2.37,22.77,22.77,0,0,1-10-2.37,20.14,20.14,0,0,1-11.6-18.81A20.51,20.51,0,0,1,857.89,27a21.31,21.31,0,0,1,8.31-7.35,21.83,21.83,0,0,1,10-2.45,22.33,22.33,0,0,1,10,2.45A21.59,21.59,0,0,1,894.43,27Zm30-.95V13.51h-.08l-3.84,4.11V3.16H908V30.82L904,35.17V47.74L908,43.39V59H920.5V30.19Z"/></g></g></svg>