<svg width="547" height="62" viewBox="0 0 547 62" fill="none" xmlns="http://www.w3.org/2000/svg">
<path fill-rule="evenodd" clip-rule="evenodd" d="M0 0.118164H19.113L45.0902 45.6908L34.2023 61.9415L0 0.118164ZM62.4281 5.00515C63.434 4.65188 64.1441 3.70981 64.1441 2.64998C64.1441 1.23687 63.0198 0.118164 61.5996 0.118164C60.1795 0.118164 59.0552 1.23687 59.0552 2.64998C59.0552 3.76869 59.7653 4.65188 60.712 5.00515V27.026L46.2737 0.118164H27.1606L61.3629 61.9415L86.3933 16.4278V16.3689H95.5652C100.062 16.3689 103.613 17.6642 106.216 20.2549C108.938 22.7867 110.299 26.3784 110.299 31.0298C110.299 35.6813 108.938 39.3318 106.216 41.9225C103.554 44.4543 100.003 45.7497 95.5652 45.7497H81.0085L71.4224 62.0004H95.5652C102.429 62.0004 105.861 60.7639 111.128 58.291C116.394 55.7592 120.536 52.1675 123.377 47.5161C126.335 42.8646 127.815 37.3888 127.815 31.0887C127.815 24.7886 126.335 19.3128 123.377 14.6614C120.477 10.0099 116.394 6.41826 111.128 3.94532C105.921 1.41351 102.489 0.118164 95.5652 0.118164H75.9788L71.8958 8.24352L67.8129 16.3689V16.4278L62.4281 27.026V5.00515Z" fill="#E3C67F"/>
<path d="M187.818 58.5849V60.7046H186.871V53.8746H187.818V57.5251L191.723 53.8746H192.907L189.534 56.9952L193.203 60.7635H192.078L188.942 57.584L187.818 58.5849ZM206.162 54.9344L204.446 58.4083H207.937L206.162 54.9344ZM204.091 59.1149L203.262 60.7046H202.256L205.747 53.8157H206.635L210.126 60.7046H209.12L208.292 59.1149H204.091ZM219.594 53.8746V60.7635H220.541V55.2877H220.6L225.216 60.7635H226.162V53.8746H225.216V59.3504H225.156L220.541 53.8746H219.594ZM241.607 60.5868C242.08 60.4691 242.494 60.2336 242.849 59.9981L242.258 59.4093C241.962 59.5859 241.666 59.7625 241.311 59.8803C240.956 59.998 240.601 60.0569 240.246 60.0569C239.713 60.0569 239.18 59.9392 238.707 59.7037C238.234 59.4681 237.819 59.1737 237.524 58.7027C237.228 58.2905 237.05 57.8195 237.05 57.2896C237.05 56.7597 237.228 56.2886 237.524 55.8765C237.819 55.4643 238.234 55.1111 238.707 54.8755C239.18 54.64 239.713 54.5223 240.246 54.5223C240.601 54.5223 240.956 54.5811 241.311 54.6989C241.666 54.8167 241.962 54.9933 242.258 55.1699L242.849 54.5811C242.494 54.2867 242.08 54.1101 241.607 53.9923C241.133 53.8746 240.66 53.8157 240.186 53.8157C239.476 53.8157 238.825 53.9335 238.175 54.2867C237.524 54.5811 237.05 54.9933 236.636 55.5821C236.222 56.112 236.044 56.7008 236.044 57.4074C236.044 58.1139 236.222 58.6438 236.636 59.2326C236.991 59.7625 237.524 60.1747 238.175 60.528C238.825 60.8224 239.476 60.999 240.186 60.999C240.66 60.8224 241.192 60.7635 241.607 60.5868ZM257.347 59.9392H253.5V57.6429H256.4V56.8774H253.5V54.5811H257.228V53.8157H252.554V60.7046H257.347V59.9392V59.9392ZM271.785 59.9392H268.176V53.8746H267.229V60.7635H271.785V59.9392V59.9392ZM284.981 54.9344L283.265 58.4083H286.756L284.981 54.9344ZM282.91 59.1149L282.081 60.7046H281.075L284.567 53.8157H285.454L288.945 60.7046H287.939L287.111 59.1149H282.91ZM301.017 57.5251C301.609 57.5251 302.082 57.4074 302.437 57.113C302.792 56.8774 302.97 56.5242 302.97 56.0531C302.97 55.5821 302.792 55.2288 302.437 54.9933C302.082 54.7578 301.609 54.64 301.017 54.64H299.36V57.5251H301.017V57.5251ZM301.254 58.2317H301.017H299.36V60.7046H298.413V53.8746H301.017C301.609 53.8746 302.141 53.9924 302.555 54.169C302.97 54.3456 303.325 54.64 303.561 54.9344C303.798 55.2877 303.916 55.641 303.916 56.0531C303.916 56.5242 303.739 56.9952 303.443 57.3485C303.147 57.7018 302.733 57.9373 302.141 58.1139L304.331 60.7046H303.325L301.254 58.2317ZM314.863 60.7046V53.8746H313.917V60.7635H314.863V60.7046ZM328.296 54.9344L326.58 58.4083H330.071L328.296 54.9344ZM326.225 59.1149L325.396 60.7046H324.39L327.882 53.8157H328.769L332.26 60.7046H331.254L330.426 59.1149H326.225ZM353.208 53.8746V60.7635H354.155V55.2877H354.214L358.829 60.7635H359.776V53.8746H358.829V59.3504H358.77L354.155 53.8746H353.208ZM376.463 58.7027C376.759 58.2905 376.877 57.8195 376.877 57.2896C376.877 56.7597 376.7 56.2886 376.463 55.8765C376.167 55.4643 375.753 55.1111 375.28 54.8755C374.806 54.64 374.274 54.5223 373.741 54.5223C373.208 54.5223 372.735 54.64 372.203 54.8755C371.729 55.1111 371.315 55.4055 371.019 55.8765C370.723 56.2886 370.546 56.7597 370.546 57.2896C370.546 57.8195 370.723 58.2905 371.019 58.7027C371.315 59.1149 371.67 59.4681 372.203 59.7037C372.676 59.9392 373.208 60.0569 373.741 60.0569C374.274 60.0569 374.747 59.9392 375.28 59.7037C375.753 59.4681 376.167 59.1149 376.463 58.7027ZM377.291 55.4643C377.647 55.9942 377.883 56.583 377.883 57.2896C377.883 57.9373 377.706 58.5849 377.291 59.1149C376.877 59.6448 376.404 60.0569 375.753 60.3513C375.102 60.6457 374.451 60.8224 373.741 60.8224C373.031 60.8224 372.38 60.7046 371.729 60.3513C371.078 60.0569 370.605 59.6448 370.191 59.1149C369.776 58.5849 369.599 57.9962 369.599 57.2896C369.599 56.583 369.776 55.9942 370.191 55.4643C370.546 54.9344 371.078 54.5223 371.729 54.2279C372.38 53.9335 373.031 53.7568 373.741 53.7568C374.451 53.7568 375.102 53.8746 375.753 54.2279C376.404 54.5223 376.936 54.9344 377.291 55.4643ZM392.322 54.64V53.8746H386.878V54.64H389.126V60.7635H390.073V54.64H392.322ZM404.275 54.9344L402.559 58.4083H406.05L404.275 54.9344ZM402.204 59.1149L401.375 60.7046H400.369L403.86 53.8157H404.748L408.239 60.7046H407.233L406.405 59.1149H402.204ZM420.311 57.5251C420.902 57.5251 421.376 57.4074 421.731 57.113C422.086 56.8774 422.263 56.5242 422.263 56.0531C422.263 55.5821 422.086 55.2288 421.731 54.9933C421.376 54.7578 420.902 54.64 420.311 54.64H418.654V57.5251H420.311V57.5251ZM420.547 58.2317H420.311H418.654V60.7046H417.707V53.8746H420.311C420.902 53.8746 421.435 53.9924 421.849 54.169C422.263 54.3456 422.618 54.64 422.855 54.9344C423.092 55.2877 423.21 55.641 423.21 56.0531C423.21 56.5242 423.033 56.9952 422.737 57.3485C422.441 57.7018 422.027 57.9373 421.435 58.1139L423.624 60.7046H422.618L420.547 58.2317ZM434.098 60.7046V53.8746H433.151V60.7635H434.098V60.7046ZM447.59 54.9344L445.874 58.4083H449.365L447.59 54.9344ZM445.519 59.1149L444.69 60.7046H443.684L447.175 53.8157H448.063L451.554 60.7046H450.548L449.72 59.1149H445.519ZM465.578 59.9392H461.969V53.8746H461.022V60.7635H465.578V59.9392ZM475.342 53.8746V60.7635H476.289V55.2877H476.348L480.963 60.7635H481.91V53.8746H480.963V59.3504H480.904L476.289 53.8746H475.342ZM495.402 54.9344L493.686 58.4083H497.177L495.402 54.9344ZM493.331 59.1149L492.502 60.7046H491.496L494.988 53.8157H495.875L499.366 60.7046H498.361L497.532 59.1149H493.331Z" fill="#FCF9F2"/>
<path d="M169.828 34.7388L162.549 14.5432L155.33 34.7388H149.886L139.176 2.17854H147.046L152.963 21.3732L159.591 2.17854H165.508L172.135 21.3732L178.053 2.17854H185.923L175.272 34.7388H169.828ZM192.787 22.7274C192.787 23.9639 193.083 25.0826 193.615 25.9658C194.148 26.849 194.799 27.5556 195.687 28.0266C196.574 28.5565 197.521 28.792 198.468 28.792C200.006 28.792 201.367 28.2621 202.432 27.1434C203.557 26.0836 204.089 24.6116 204.089 22.7863C204.089 20.9022 203.557 19.3713 202.432 18.2526C201.308 17.1928 199.947 16.604 198.468 16.604C196.988 16.604 195.568 17.1339 194.503 18.2526C193.379 19.3124 192.787 20.8433 192.787 22.7274ZM209.356 15.8974C210.657 17.7816 211.308 20.1368 211.308 22.7863C211.308 25.4359 210.657 27.7322 209.356 29.6163C208.054 31.5005 206.456 32.9136 204.503 33.8556C202.491 34.7977 200.539 35.2688 198.586 35.2688C196.633 35.2688 194.621 34.7977 192.669 33.8556C190.657 32.9136 189.059 31.5005 187.757 29.6163C186.455 27.7322 185.805 25.4359 185.805 22.7863C185.805 20.1368 186.455 17.7816 187.757 15.8974C189.059 14.0133 190.657 12.5413 192.669 11.5404C194.621 10.5394 196.574 10.0684 198.586 10.0684C200.598 10.0684 202.551 10.5394 204.503 11.5404C206.397 12.5413 208.054 13.9544 209.356 15.8974ZM209.888 36.9763H211.367C212.551 36.9763 213.498 36.8585 214.208 36.5641C214.918 36.3286 215.45 35.7987 215.805 35.0921C216.101 34.3856 216.338 33.3257 216.338 31.9715V10.5394H223.735V32.6781C223.735 36.5641 222.788 39.3314 220.894 41.0389C219.001 42.8053 215.983 43.6885 211.782 43.6885H209.888V36.9763ZM216.042 4.0038C216.042 2.82621 216.397 1.88414 217.226 1.11871C217.995 0.353276 218.883 0 220.066 0C221.249 0 222.137 0.353276 222.965 1.11871C223.735 1.88414 224.09 2.82621 224.09 4.0038C224.09 5.18139 223.735 6.12346 222.965 6.88889C222.196 7.65432 221.249 8.0076 220.066 8.0076C218.883 8.0076 217.995 7.65432 217.226 6.88889C216.456 6.12346 216.042 5.18139 216.042 4.0038ZM246.931 11.5404C245.156 10.5394 243.144 10.0684 240.895 10.0684C239.002 10.0684 237.049 10.5394 235.096 11.5404C233.143 12.5413 231.546 13.8955 230.244 15.8386C228.942 17.7816 228.291 20.0779 228.291 22.7274C228.291 25.377 228.942 27.6733 230.244 29.5575C231.546 31.4416 233.143 32.8547 235.096 33.7968C237.049 34.7977 239.002 35.2688 240.895 35.2688C245.511 35.2688 249.002 33.3846 251.369 29.6163L245.688 26.9668C244.86 27.6733 244.15 28.1443 243.558 28.4387C242.966 28.7331 242.138 28.8509 240.954 28.8509C240.007 28.8509 239.12 28.6154 238.232 28.0855C237.345 27.6144 236.635 26.9079 236.161 25.9658C235.629 25.0826 235.333 24.0228 235.333 22.7274C235.333 21.491 235.629 20.3723 236.161 19.4302C236.694 18.4881 237.345 17.7816 238.232 17.3105C239.12 16.8395 240.007 16.604 240.954 16.604C241.723 16.604 242.493 16.7217 243.144 16.8984C243.735 17.1339 244.327 17.4283 244.801 17.8405C245.333 18.2526 245.57 18.547 245.688 18.6059L251.25 15.9563C250.126 13.9544 248.647 12.5413 246.931 11.5404ZM256.103 34.7388V10.5394H263.44V34.7388H256.103ZM255.807 4.0038C255.807 2.82621 256.162 1.88414 256.99 1.11871C257.76 0.353276 258.647 0 259.831 0C260.955 0 261.902 0.353276 262.671 1.11871C263.44 1.88414 263.854 2.82621 263.854 4.0038C263.854 5.18139 263.499 6.12346 262.671 6.88889C261.902 7.65432 260.955 8.0076 259.831 8.0076C258.647 8.0076 257.76 7.65432 256.99 6.88889C256.162 6.12346 255.807 5.18139 255.807 4.0038ZM275.393 20.0779H285.394C285.098 18.9003 284.506 17.9582 283.559 17.3105C282.612 16.7217 281.547 16.3685 280.423 16.3685C279.358 16.3685 278.352 16.7217 277.464 17.3105C276.458 17.9582 275.807 18.9003 275.393 20.0779ZM290.364 15.4853C291.548 17.3694 292.198 19.7246 292.198 22.4919C292.198 23.4929 292.139 24.3761 292.021 25.2593H275.334C275.748 26.4957 276.458 27.4378 277.405 28.0266C278.352 28.6743 279.654 29.0275 281.074 29.0275C282.198 29.0275 283.086 28.9098 283.737 28.7331C284.388 28.6154 284.979 28.3799 285.512 28.1443C286.044 27.9088 286.459 27.7911 286.695 27.6733L290.719 31.5594C289.536 32.7369 288.175 33.6201 286.636 34.2089C285.039 34.8566 283.086 35.2099 280.837 35.2099C278.766 35.2099 276.754 34.7388 274.801 33.7379C272.79 32.7958 271.192 31.3827 269.949 29.4986C268.707 27.6144 268.056 25.377 268.056 22.7274C268.056 20.0779 268.707 17.7227 269.949 15.8386C271.192 13.9544 272.79 12.4824 274.683 11.4815C276.577 10.4805 278.529 10.0095 280.423 10.0095C282.257 10.0095 284.092 10.4217 285.926 11.3048C287.642 12.3058 289.121 13.66 290.364 15.4853ZM314.329 11.5404C312.554 10.5394 310.542 10.0684 308.294 10.0684C306.4 10.0684 304.447 10.5394 302.495 11.5404C300.542 12.5413 298.944 13.8955 297.642 15.8386C296.341 17.7227 295.69 20.0779 295.69 22.7274C295.69 25.377 296.341 27.6733 297.642 29.5575C298.944 31.4416 300.542 32.8547 302.495 33.7968C304.447 34.7977 306.4 35.2688 308.294 35.2688C312.909 35.2688 316.4 33.3846 318.767 29.6163L313.087 26.9668C312.258 27.6733 311.548 28.1443 310.956 28.4387C310.365 28.7331 309.536 28.8509 308.353 28.8509C307.406 28.8509 306.518 28.6154 305.631 28.0855C304.743 27.6144 304.033 26.9079 303.56 25.9658C303.027 25.0826 302.731 24.0228 302.731 22.7274C302.731 21.491 303.027 20.3723 303.56 19.4302C304.092 18.4881 304.743 17.7816 305.631 17.3105C306.518 16.8395 307.406 16.604 308.353 16.604C309.122 16.604 309.891 16.7217 310.542 16.8984C311.134 17.1339 311.726 17.4283 312.199 17.8405C312.732 18.2526 312.968 18.547 313.087 18.6059L318.649 15.9563C317.525 13.9544 316.105 12.5413 314.329 11.5404ZM342.792 11.1871C341.431 10.4217 340.011 10.0684 338.472 10.0684C337.111 10.0684 335.869 10.3628 334.803 10.8927C333.738 11.4815 332.851 12.1292 332.2 12.8946C331.549 13.66 331.135 14.3666 330.957 14.8965V1.88414H323.62V34.7388H330.957V20.5489C331.016 20.0779 331.194 19.548 331.608 18.9003C332.022 18.3115 332.555 17.7227 333.265 17.2517C333.975 16.7806 334.744 16.5451 335.632 16.5451C336.875 16.5451 337.94 16.8984 338.768 17.7227C339.537 18.4881 339.952 19.7246 339.952 21.4321V34.7388H347.348V20.9022C347.348 18.4881 346.934 16.4273 346.106 14.7787C345.277 13.189 344.153 12.0114 342.792 11.1871ZM385.811 23.0218C386.462 21.5499 386.758 20.019 386.758 18.2526C386.758 16.604 386.462 15.132 385.752 13.7778C385.042 12.4236 384.095 11.3048 382.734 10.4805C381.373 9.7151 379.834 9.24406 377.882 9.24406H373.385V27.6733H377.941C379.834 27.6733 381.491 27.2612 382.793 26.4368C384.154 25.6125 385.16 24.4938 385.811 23.0218ZM392.261 10.1861C393.681 12.6591 394.45 15.3675 394.45 18.2526C394.45 21.2555 393.681 24.0817 392.261 26.5546C390.782 29.0864 388.77 31.0883 386.284 32.5603C383.799 34.0323 381.018 34.7388 378 34.7388H365.929V2.17854H378C381.018 2.17854 383.74 2.88509 386.284 4.2982C388.829 5.77018 390.782 7.7132 392.261 10.1861ZM410.25 28.321L421.848 10.5394H399.598V16.9573H410.131L398.592 34.7388H421.078V28.321H410.25ZM426.345 34.7388V10.5394H433.682V34.7388H426.345ZM426.049 4.0038C426.049 2.82621 426.404 1.88414 427.232 1.11871C428.002 0.353276 428.889 0 430.073 0C431.197 0 432.144 0.353276 432.913 1.11871C433.682 1.88414 434.097 2.82621 434.097 4.0038C434.097 5.18139 433.742 6.12346 432.913 6.88889C432.144 7.65432 431.197 8.0076 430.073 8.0076C428.889 8.0076 428.002 7.65432 427.232 6.88889C426.463 6.12346 426.049 5.18139 426.049 4.0038ZM445.635 20.0779H455.636C455.34 18.9003 454.748 17.9582 453.801 17.3105C452.855 16.7217 451.789 16.3685 450.665 16.3685C449.6 16.3685 448.594 16.7217 447.706 17.3105C446.76 17.9582 446.05 18.9003 445.635 20.0779ZM460.606 15.4853C461.79 17.3694 462.441 19.7246 462.441 22.4919C462.441 23.4929 462.382 24.3761 462.263 25.2593H445.576C445.99 26.4957 446.701 27.4378 447.647 28.0266C448.594 28.6743 449.896 29.0275 451.316 29.0275C452.44 29.0275 453.328 28.9098 453.979 28.7331C454.63 28.6154 455.222 28.3799 455.754 28.1443C456.287 27.9088 456.701 27.7911 456.938 27.6733L460.961 31.5594C459.364 33.1491 457.411 34.2089 455.281 34.7388H455.636C453.801 35.3865 452.381 35.9164 451.494 36.3286C450.547 36.7407 449.896 37.2118 449.482 37.6828C449.067 38.1538 448.831 38.6838 448.831 39.3314C448.831 39.8613 449.067 40.3324 449.6 40.6857C450.073 41.0389 450.606 41.2156 451.198 41.2156C451.73 41.2156 452.204 41.0978 452.559 40.8623L454.156 43.924C453.565 44.2773 452.795 44.5128 451.908 44.6895C450.961 44.925 450.014 45.0427 449.008 45.0427C447.056 45.0427 445.399 44.6895 443.979 43.924C442.558 43.1586 441.848 42.0399 441.848 40.509C441.848 39.037 442.381 37.9772 443.505 37.094C444.57 36.2697 446.05 35.4454 447.884 34.7388C446.168 34.3267 444.57 33.6201 443.091 32.5603C441.612 31.5594 440.428 30.2051 439.541 28.4387C438.653 26.7901 438.18 24.7882 438.18 22.6097C438.18 19.9601 438.83 17.6049 440.073 15.7208C441.316 13.8367 442.913 12.3647 444.807 11.3637C446.701 10.3628 448.653 9.89174 450.547 9.89174C452.381 9.89174 454.216 10.3039 456.05 11.1871C457.944 12.3058 459.423 13.66 460.606 15.4853ZM484.631 11.5404C482.856 10.5394 480.844 10.0684 478.595 10.0684C476.702 10.0684 474.749 10.5394 472.796 11.5404C470.843 12.5413 469.246 13.8955 467.944 15.8386C466.642 17.7816 465.991 20.0779 465.991 22.7274C465.991 25.377 466.642 27.6733 467.944 29.5575C469.246 31.4416 470.843 32.8547 472.796 33.7968C474.749 34.7977 476.702 35.2688 478.595 35.2688C483.211 35.2688 486.702 33.3846 489.069 29.6163L483.388 26.9668C482.56 27.6733 481.85 28.1443 481.258 28.4387C480.666 28.7331 479.838 28.8509 478.654 28.8509C477.707 28.8509 476.82 28.6154 475.932 28.0855C475.045 27.6144 474.335 26.9079 473.861 25.9658C473.329 25.0826 473.033 24.0228 473.033 22.7274C473.033 21.491 473.329 20.3723 473.861 19.4302C474.394 18.4881 475.045 17.7816 475.932 17.3105C476.82 16.8395 477.707 16.604 478.654 16.604C479.424 16.604 480.193 16.7217 480.844 16.8984C481.435 17.1339 482.027 17.4283 482.501 17.8405C483.033 18.2526 483.27 18.547 483.388 18.6059L488.95 15.9563C487.826 13.9544 486.406 12.5413 484.631 11.5404ZM493.803 34.7388V10.5394H501.14V34.7388H493.803ZM493.507 4.0038C493.507 2.82621 493.862 1.88414 494.69 1.11871C495.46 0.353276 496.347 0 497.531 0C498.655 0 499.602 0.353276 500.371 1.11871C501.14 1.88414 501.554 2.82621 501.554 4.0038C501.554 5.18139 501.199 6.12346 500.371 6.88889C499.602 7.65432 498.655 8.0076 497.531 8.0076C496.347 8.0076 495.46 7.65432 494.69 6.88889C493.862 6.12346 493.507 5.18139 493.507 4.0038ZM512.738 22.7274C512.738 23.9639 513.034 25.0826 513.567 25.9658C514.099 26.849 514.75 27.5556 515.638 28.0266C516.525 28.5565 517.472 28.792 518.419 28.792C519.957 28.792 521.318 28.2621 522.383 27.1434C523.508 26.0836 524.04 24.6116 524.04 22.7863C524.04 20.9022 523.508 19.3713 522.383 18.2526C521.259 17.1928 519.898 16.604 518.419 16.604C516.88 16.604 515.519 17.1339 514.454 18.2526C513.33 19.3124 512.738 20.8433 512.738 22.7274ZM529.248 15.8974C530.549 17.7816 531.2 20.1368 531.2 22.7863C531.2 25.4359 530.549 27.7322 529.248 29.6163C527.946 31.5005 526.348 32.9136 524.395 33.8556C522.383 34.7977 520.431 35.2688 518.478 35.2688C516.466 35.2688 514.513 34.7977 512.561 33.8556C510.549 32.9136 508.951 31.5005 507.649 29.6163C506.347 27.7322 505.697 25.4359 505.697 22.7863C505.697 20.1368 506.347 17.7816 507.649 15.8974C508.951 14.0133 510.549 12.5413 512.561 11.5404C514.513 10.5394 516.466 10.0684 518.478 10.0684C520.49 10.0684 522.443 10.5394 524.395 11.5404C526.348 12.5413 527.946 13.9544 529.248 15.8974ZM547 15.3086V7.94872H546.94L544.692 10.3628V1.88414H537.295V18.1937L534.869 20.7255V28.1443L537.295 25.6125V34.7388H544.692V17.7816L547 15.3086Z" fill="#FCF9F2"/>
</svg>
