<?xml version="1.0" encoding="utf-8"?>
<!-- Generator: Adobe Illustrator 25.0.0, SVG Export Plug-In . SVG Version: 6.00 Build 0)  -->
<svg version="1.1" id="Layer_1" xmlns="http://www.w3.org/2000/svg" xmlns:xlink="http://www.w3.org/1999/xlink" x="0px" y="0px"
	 viewBox="0 0 924.4 105.3" style="enable-background:new 0 0 924.4 105.3;" xml:space="preserve">
<style type="text/css">
	.st0{fill-rule:evenodd;clip-rule:evenodd;fill:#E3C67F;}
	.st1{fill:#0E302F;}
</style>
<g>
	<path class="st0" d="M0,0.2h32.3l43.9,77.4l-18.4,27.6L0,0.2z M105.5,8.5c1.7-0.6,2.9-2.2,2.9-4c0-2.4-1.9-4.3-4.3-4.3
		c-2.4,0-4.3,1.9-4.3,4.3c0,1.9,1.2,3.4,2.8,4v37.4L78.2,0.2H45.9l57.8,105l42.3-77.3l0-0.1h15.5c7.6,0,13.6,2.2,18,6.6
		c4.6,4.3,6.9,10.4,6.9,18.3s-2.3,14.1-6.9,18.5c-4.5,4.3-10.5,6.5-18,6.5h-24.6l-16.2,27.6h40.8c11.6,0,17.4-2.1,26.3-6.3
		c8.9-4.3,15.9-10.4,20.7-18.3c5-7.9,7.5-17.2,7.5-27.9s-2.5-20-7.5-27.9c-4.9-7.9-11.8-14-20.7-18.2c-8.8-4.3-14.6-6.5-26.3-6.5
		h-33.1L121.5,14l-6.9,13.8h0l0,0.1l-9.1,18l0,0V8.5z"/>
	<g>
		<path class="st1" d="M317.4,99.5v3.6h-1.6V91.5h1.6v6.2l6.6-6.2h2l-5.7,5.3l6.2,6.4h-1.9l-5.3-5.4L317.4,99.5z M348.4,93.3
			l-2.9,5.9h5.9L348.4,93.3z M344.9,100.4l-1.4,2.7h-1.7l5.9-11.7h1.5l5.9,11.7h-1.7l-1.4-2.7H344.9z M371.1,91.5v11.7h1.6v-9.3h0.1
			l7.8,9.3h1.6V91.5h-1.6v9.3h-0.1l-7.8-9.3H371.1z M408.3,102.9c0.8-0.2,1.5-0.6,2.1-1l-1-1c-0.5,0.3-1,0.6-1.6,0.8
			c-0.6,0.2-1.2,0.3-1.8,0.3c-0.9,0-1.8-0.2-2.6-0.6c-0.8-0.4-1.5-0.9-2-1.7c-0.5-0.7-0.8-1.5-0.8-2.4s0.3-1.7,0.8-2.4
			c0.5-0.7,1.2-1.3,2-1.7c0.8-0.4,1.7-0.6,2.6-0.6c0.6,0,1.2,0.1,1.8,0.3c0.6,0.2,1.1,0.5,1.6,0.8l1-1c-0.6-0.5-1.3-0.8-2.1-1
			c-0.8-0.2-1.6-0.3-2.4-0.3c-1.2,0-2.3,0.2-3.4,0.8c-1.1,0.5-1.9,1.2-2.6,2.2c-0.7,0.9-1,1.9-1,3.1s0.3,2.1,1,3.1
			c0.6,0.9,1.5,1.6,2.6,2.2c1.1,0.5,2.2,0.8,3.4,0.8C406.7,103.3,407.6,103.2,408.3,102.9z M434.9,101.8h-6.5v-3.9h4.9v-1.3h-4.9
			v-3.9h6.3v-1.3h-7.9v11.7h8.1V101.8z M459.3,101.8h-6.1V91.5h-1.6v11.7h7.7V101.8z M481.6,93.3l-2.9,5.9h5.9L481.6,93.3z
			 M478.1,100.4l-1.4,2.7H475l5.9-11.7h1.5l5.9,11.7h-1.7l-1.4-2.7H478.1z M508.7,97.7c1,0,1.8-0.2,2.4-0.7c0.6-0.4,0.9-1,0.9-1.8
			s-0.3-1.4-0.9-1.8c-0.6-0.4-1.4-0.6-2.4-0.6h-2.8v4.9H508.7z M509.1,98.9h-0.4h-2.8v4.2h-1.6V91.5h4.4c1,0,1.9,0.2,2.6,0.5
			c0.7,0.3,1.3,0.8,1.7,1.3c0.4,0.6,0.6,1.2,0.6,1.9c0,0.8-0.3,1.6-0.8,2.2c-0.5,0.6-1.2,1-2.2,1.3l3.7,4.4h-1.7L509.1,98.9z
			 M532.1,103.1V91.5h-1.6v11.7H532.1z M554.8,93.3l-2.9,5.9h5.9L554.8,93.3z M551.3,100.4l-1.4,2.7h-1.7l5.9-11.7h1.5l5.9,11.7
			h-1.7l-1.4-2.7H551.3z M596.9,91.5v11.7h1.6v-9.3h0.1l7.8,9.3h1.6V91.5h-1.6v9.3h-0.1l-7.8-9.3H596.9z M636.2,99.7
			c0.5-0.7,0.7-1.5,0.7-2.4c0-0.9-0.3-1.7-0.7-2.4c-0.5-0.7-1.2-1.3-2-1.7c-0.8-0.4-1.7-0.6-2.6-0.6c-0.9,0-1.7,0.2-2.6,0.6
			c-0.8,0.4-1.5,0.9-2,1.7c-0.5,0.7-0.8,1.5-0.8,2.4c0,0.9,0.3,1.7,0.8,2.4c0.5,0.7,1.1,1.3,2,1.7c0.8,0.4,1.7,0.6,2.6,0.6
			c0.9,0,1.7-0.2,2.6-0.6C635,101,635.7,100.4,636.2,99.7z M637.6,94.2c0.6,0.9,1,1.9,1,3.1c0,1.1-0.3,2.2-1,3.1
			c-0.7,0.9-1.5,1.6-2.6,2.1c-1.1,0.5-2.2,0.8-3.4,0.8c-1.2,0-2.3-0.2-3.4-0.8c-1.1-0.5-1.9-1.2-2.6-2.1c-0.7-0.9-1-1.9-1-3.1
			c0-1.2,0.3-2.2,1-3.1c0.6-0.9,1.5-1.6,2.6-2.1c1.1-0.5,2.2-0.8,3.4-0.8c1.2,0,2.3,0.2,3.4,0.8C636.1,92.6,637,93.3,637.6,94.2z
			 M663,92.8v-1.3h-9.2v1.3h3.8v10.4h1.6V92.8H663z M683.2,93.3l-2.9,5.9h5.9L683.2,93.3z M679.7,100.4l-1.4,2.7h-1.7l5.9-11.7h1.5
			l5.9,11.7h-1.7l-1.4-2.7H679.7z M710.3,97.7c1,0,1.8-0.2,2.4-0.7c0.6-0.4,0.9-1,0.9-1.8s-0.3-1.4-0.9-1.8
			c-0.6-0.4-1.4-0.6-2.4-0.6h-2.8v4.9H710.3z M710.7,98.9h-0.4h-2.8v4.2h-1.6V91.5h4.4c1,0,1.9,0.2,2.6,0.5c0.7,0.3,1.3,0.8,1.7,1.3
			c0.4,0.6,0.6,1.2,0.6,1.9c0,0.8-0.3,1.6-0.8,2.2c-0.5,0.6-1.2,1-2.2,1.3l3.7,4.4h-1.7L710.7,98.9z M733.6,103.1V91.5H732v11.7
			H733.6z M756.4,93.3l-2.9,5.9h5.9L756.4,93.3z M752.9,100.4l-1.4,2.7h-1.7l5.9-11.7h1.5l5.9,11.7h-1.7l-1.4-2.7H752.9z
			 M786.8,101.8h-6.1V91.5h-1.6v11.7h7.7V101.8z M803.3,91.5v11.7h1.6v-9.3h0.1l7.8,9.3h1.6V91.5h-1.6v9.3h-0.1l-7.8-9.3H803.3z
			 M837.2,93.3l-2.9,5.9h5.9L837.2,93.3z M833.7,100.4l-1.4,2.7h-1.7l5.9-11.7h1.5l5.9,11.7h-1.7l-1.4-2.7H833.7z"/>
		<path class="st1" d="M287,59l-12.3-34.3L262.5,59h-9.2L235.2,3.7h13.3l10,32.6l11.2-32.6h10l11.2,32.6l10-32.6h13.3L296.2,59H287z
			 M325.8,38.6c0,2.1,0.5,4,1.4,5.5c0.9,1.5,2,2.7,3.5,3.5c1.5,0.9,3.1,1.3,4.7,1.3c2.6,0,4.9-0.9,6.7-2.8c1.9-1.8,2.8-4.3,2.8-7.4
			c0-3.2-0.9-5.8-2.8-7.7c-1.9-1.8-4.2-2.8-6.7-2.8s-4.9,0.9-6.7,2.8C326.8,32.8,325.8,35.4,325.8,38.6z M353.8,27
			c2.2,3.2,3.3,7.2,3.3,11.7s-1.1,8.4-3.3,11.6c-2.2,3.2-4.9,5.6-8.2,7.2c-3.4,1.6-6.7,2.4-10,2.4s-6.7-0.8-10-2.4
			c-3.4-1.6-6.1-4-8.3-7.2c-2.2-3.2-3.3-7.1-3.3-11.6s1.1-8.5,3.3-11.7c2.2-3.2,4.9-5.7,8.3-7.4c3.3-1.7,6.6-2.5,10-2.5
			s6.7,0.8,10,2.5C348.8,21.3,351.6,23.7,353.8,27z M354.7,62.8h2.5c2,0,3.6-0.2,4.8-0.7c1.2-0.4,2.1-1.3,2.7-2.5
			c0.5-1.2,0.9-3,0.9-5.3V17.9h12.5v37.6c0,6.6-1.6,11.3-4.8,14.2c-3.2,3-8.3,4.5-15.4,4.5h-3.2V62.8z M365.1,6.8c0-2,0.6-3.6,2-4.9
			c1.3-1.3,2.8-1.9,4.8-1.9s3.5,0.6,4.9,1.9c1.3,1.3,1.9,2.9,1.9,4.9c0,2-0.6,3.6-1.9,4.9c-1.3,1.3-2.9,1.9-4.9,1.9
			s-3.5-0.6-4.8-1.9C365.8,10.4,365.1,8.8,365.1,6.8z M417.3,19.6c-3-1.7-6.4-2.5-10.2-2.5c-3.2,0-6.5,0.8-9.8,2.5
			c-3.3,1.7-6,4-8.2,7.3s-3.3,7.2-3.3,11.7s1.1,8.4,3.3,11.6c2.2,3.2,4.9,5.6,8.2,7.2c3.3,1.7,6.6,2.5,9.8,2.5
			c7.8,0,13.7-3.2,17.7-9.6l-9.6-4.5c-1.4,1.2-2.6,2-3.6,2.5c-1,0.5-2.4,0.7-4.4,0.7c-1.6,0-3.1-0.4-4.6-1.3c-1.5-0.8-2.7-2-3.5-3.6
			c-0.9-1.5-1.4-3.3-1.4-5.5c0-2.1,0.5-4,1.4-5.6c0.9-1.6,2-2.8,3.5-3.6c1.5-0.8,3-1.2,4.6-1.2c1.3,0,2.6,0.2,3.7,0.5
			c1,0.4,2,0.9,2.8,1.6c0.9,0.7,1.3,1.2,1.5,1.3l9.4-4.5C422.7,23.7,420.2,21.3,417.3,19.6z M432.8,59V17.9h12.4V59H432.8z
			 M432.3,6.8c0-2,0.6-3.6,2-4.9c1.3-1.3,2.8-1.9,4.8-1.9c1.9,0,3.5,0.6,4.8,1.9c1.3,1.3,2,2.9,2,4.9c0,2-0.6,3.6-2,4.9
			c-1.3,1.3-2.9,1.9-4.8,1.9c-2,0-3.5-0.6-4.8-1.9C432.9,10.4,432.3,8.8,432.3,6.8z M465.4,34.1h16.9c-0.5-2-1.5-3.6-3.1-4.7
			c-1.6-1-3.4-1.6-5.3-1.6c-1.8,0-3.5,0.6-5,1.6C467.2,30.5,466.1,32.1,465.4,34.1z M490.7,26.3c2,3.2,3.1,7.2,3.1,11.9
			c0,1.7-0.1,3.2-0.3,4.7h-28.2c0.7,2.1,1.9,3.7,3.5,4.7c1.6,1.1,3.8,1.7,6.2,1.7c1.9,0,3.4-0.2,4.5-0.5c1.1-0.2,2.1-0.6,3-1
			s1.6-0.6,2-0.8l6.8,6.6c-2,2-4.3,3.5-6.9,4.5c-2.7,1.1-6,1.7-9.8,1.7c-3.5,0-6.9-0.8-10.2-2.5c-3.4-1.6-6.1-4-8.2-7.2
			c-2.1-3.2-3.2-7-3.2-11.5s1.1-8.5,3.2-11.7c2.1-3.2,4.8-5.7,8-7.4c3.2-1.7,6.5-2.5,9.7-2.5c3.1,0,6.2,0.7,9.3,2.2
			C486.1,20.9,488.6,23.2,490.7,26.3z M531.2,19.6c-3-1.7-6.4-2.5-10.2-2.5c-3.2,0-6.5,0.8-9.8,2.5c-3.3,1.7-6,4-8.2,7.3
			c-2.2,3.2-3.3,7.2-3.3,11.7s1.1,8.4,3.3,11.6c2.2,3.2,4.9,5.6,8.2,7.2c3.3,1.7,6.6,2.5,9.8,2.5c7.8,0,13.7-3.2,17.7-9.6l-9.6-4.5
			c-1.4,1.2-2.6,2-3.6,2.5c-1,0.5-2.4,0.7-4.4,0.7c-1.6,0-3.1-0.4-4.6-1.3c-1.5-0.8-2.7-2-3.5-3.6c-0.9-1.5-1.4-3.3-1.4-5.5
			c0-2.1,0.5-4,1.4-5.6c0.9-1.6,2-2.8,3.5-3.6c1.5-0.8,3-1.2,4.6-1.2c1.3,0,2.6,0.2,3.7,0.5c1,0.4,2,0.9,2.8,1.6
			c0.9,0.7,1.3,1.2,1.5,1.3l9.4-4.5C536.6,23.7,534.2,21.3,531.2,19.6z M579.3,19c-2.3-1.3-4.7-1.9-7.3-1.9c-2.3,0-4.4,0.5-6.2,1.4
			c-1.8,1-3.3,2.1-4.4,3.4c-1.1,1.3-1.8,2.5-2.1,3.4V3.2h-12.4V59h12.4V34.9c0.1-0.8,0.4-1.7,1.1-2.8c0.7-1,1.6-2,2.8-2.8
			c1.2-0.8,2.5-1.2,4-1.2c2.1,0,3.9,0.6,5.3,2c1.3,1.3,2,3.4,2,6.3V59h12.5V35.5c0-4.1-0.7-7.6-2.1-10.4
			C583.5,22.4,581.6,20.4,579.3,19z M652,39.1c1.1-2.5,1.6-5.1,1.6-8.1c0-2.8-0.5-5.3-1.7-7.6c-1.2-2.3-2.8-4.2-5.1-5.6
			c-2.3-1.3-4.9-2.1-8.2-2.1H631V47h7.7c3.2,0,6-0.7,8.2-2.1C649.2,43.5,650.9,41.6,652,39.1z M662.9,17.3c2.4,4.2,3.7,8.8,3.7,13.7
			c0,5.1-1.3,9.9-3.7,14.1c-2.5,4.3-5.9,7.7-10.1,10.2s-8.9,3.7-14,3.7h-20.4V3.7h20.4c5.1,0,9.7,1.2,14,3.6
			C657.1,9.8,660.4,13.1,662.9,17.3z M693.3,48.1l19.6-30.2h-37.6v10.9h17.8L673.6,59h38V48.1H693.3z M720.5,59V17.9h12.4V59H720.5z
			 M720,6.8c0-2,0.6-3.6,2-4.9c1.3-1.3,2.8-1.9,4.8-1.9c1.9,0,3.5,0.6,4.8,1.9c1.3,1.3,2,2.9,2,4.9c0,2-0.6,3.6-2,4.9
			c-1.3,1.3-2.9,1.9-4.8,1.9c-2,0-3.5-0.6-4.8-1.9C720.7,10.4,720,8.8,720,6.8z M753.1,34.1H770c-0.5-2-1.5-3.6-3.1-4.7
			c-1.6-1-3.4-1.6-5.3-1.6c-1.8,0-3.5,0.6-5,1.6C755,30.5,753.8,32.1,753.1,34.1z M778.4,26.3c2,3.2,3.1,7.2,3.1,11.9
			c0,1.7-0.1,3.2-0.3,4.7H753c0.7,2.1,1.9,3.7,3.5,4.7c1.6,1.1,3.8,1.7,6.2,1.7c1.9,0,3.4-0.2,4.5-0.5c1.1-0.2,2.1-0.6,3-1
			c0.9-0.4,1.6-0.6,2-0.8l6.8,6.6c-2.7,2.7-6,4.5-9.6,5.4h0.6c-3.1,1.1-5.5,2-7,2.7c-1.6,0.7-2.7,1.5-3.4,2.3
			c-0.7,0.8-1.1,1.7-1.1,2.8c0,0.9,0.4,1.7,1.3,2.3c0.8,0.6,1.7,0.9,2.7,0.9c0.9,0,1.7-0.2,2.3-0.6l2.7,5.2c-1,0.6-2.3,1-3.8,1.3
			c-1.6,0.4-3.2,0.6-4.9,0.6c-3.3,0-6.1-0.6-8.5-1.9c-2.4-1.3-3.6-3.2-3.6-5.8c0-2.5,0.9-4.3,2.8-5.8c1.8-1.4,4.3-2.8,7.4-4
			c-2.9-0.7-5.6-1.9-8.1-3.7c-2.5-1.7-4.5-4-6-7c-1.5-2.8-2.3-6.2-2.3-9.9c0-4.5,1.1-8.5,3.2-11.7c2.1-3.2,4.8-5.7,8-7.4
			c3.2-1.7,6.5-2.5,9.7-2.5c3.1,0,6.2,0.7,9.3,2.2C773.9,20.9,776.4,23.2,778.4,26.3z M819,19.6c-3-1.7-6.4-2.5-10.2-2.5
			c-3.2,0-6.5,0.8-9.8,2.5c-3.3,1.7-6,4-8.2,7.3s-3.3,7.2-3.3,11.7s1.1,8.4,3.3,11.6c2.2,3.2,4.9,5.6,8.2,7.2
			c3.3,1.7,6.6,2.5,9.8,2.5c7.8,0,13.7-3.2,17.7-9.6l-9.6-4.5c-1.4,1.2-2.6,2-3.6,2.5c-1,0.5-2.4,0.7-4.4,0.7
			c-1.6,0-3.1-0.4-4.6-1.3c-1.5-0.8-2.7-2-3.5-3.6c-0.9-1.5-1.4-3.3-1.4-5.5c0-2.1,0.5-4,1.4-5.6c0.9-1.6,2-2.8,3.5-3.6
			c1.5-0.8,3-1.2,4.6-1.2c1.3,0,2.6,0.2,3.7,0.5c1,0.4,2,0.9,2.8,1.6c0.9,0.7,1.3,1.2,1.5,1.3l9.4-4.5C824.4,23.7,822,21.3,819,19.6
			z M834.5,59V17.9h12.4V59H834.5z M834,6.8c0-2,0.6-3.6,2-4.9c1.3-1.3,2.8-1.9,4.8-1.9c1.9,0,3.5,0.6,4.8,1.9c1.3,1.3,2,2.9,2,4.9
			c0,2-0.6,3.6-2,4.9c-1.3,1.3-2.9,1.9-4.8,1.9c-2,0-3.5-0.6-4.8-1.9C834.6,10.4,834,8.8,834,6.8z M866.5,38.6c0,2.1,0.5,4,1.4,5.5
			c0.9,1.5,2,2.7,3.5,3.5c1.5,0.9,3.1,1.3,4.7,1.3c2.6,0,4.9-0.9,6.7-2.8c1.9-1.8,2.8-4.3,2.8-7.4c0-3.2-0.9-5.8-2.8-7.7
			c-1.9-1.8-4.2-2.8-6.7-2.8c-2.6,0-4.9,0.9-6.7,2.8C867.5,32.8,866.5,35.4,866.5,38.6z M894.4,27c2.2,3.2,3.3,7.2,3.3,11.7
			s-1.1,8.4-3.3,11.6c-2.2,3.2-4.9,5.6-8.2,7.2c-3.4,1.6-6.7,2.4-10,2.4c-3.4,0-6.7-0.8-10-2.4c-3.4-1.6-6.1-4-8.3-7.2
			c-2.2-3.2-3.3-7.1-3.3-11.6s1.1-8.5,3.3-11.7c2.2-3.2,4.9-5.7,8.3-7.4c3.3-1.7,6.6-2.5,10-2.5c3.4,0,6.7,0.8,10,2.5
			C889.5,21.3,892.2,23.7,894.4,27z M924.4,26V13.5h-0.1l-3.8,4.1V3.2H908v27.7l-4.1,4.3v12.6l4.1-4.3V59h12.5V30.2L924.4,26z"/>
	</g>
</g>
</svg>
