<svg width="23" height="14" viewBox="0 0 23 14" fill="none" xmlns="http://www.w3.org/2000/svg">
<path d="M6.50917 4.73625C9.18554 7.18999 13.2938 7.18999 15.9702 4.73625L21.1356 0.00051337H1.34375L6.50917 4.73625Z" fill="white"/>
<path d="M18.1874 8.84774C17.0457 7.68153 17.0457 5.8166 18.1874 4.65039L22.6864 0.0547699V13.4434L18.1874 8.84774Z" fill="white"/>
<path d="M4.49816 8.79305C5.63986 7.62685 5.63986 5.76191 4.49816 4.5957L-0.000879958 8.24315e-05L-0.000879958 13.3887L4.49816 8.79305Z" fill="white"/>
<path fill-rule="evenodd" clip-rule="evenodd" d="M7.46978 7.46822L1.3457 14.0006H21.5107L15.3633 7.44336L14.4156 7.91718C12.5263 8.86183 10.3115 8.90283 8.38853 8.02875L7.73179 7.73024L7.46978 7.46822Z" fill="white"/>
</svg>
