<svg width="98" height="59" viewBox="0 0 98 59" fill="none" xmlns="http://www.w3.org/2000/svg">
<rect x="2.5" y="2.5" width="93" height="54" rx="3.5" stroke="#E3C67F" stroke-width="5"/>
<mask id="path-2-inside-1" fill="white">
<path fill-rule="evenodd" clip-rule="evenodd" d="M96.1185 1.63709L49.2691 30.0307L2.09766 1.44191C3.14673 0.543009 4.50975 0 5.9996 0H91.9996C93.5944 0 95.0438 0.622198 96.1185 1.63709Z"/>
</mask>
<path d="M96.1185 1.63709L98.71 5.91308L104.325 2.51005L99.5515 -1.99804L96.1185 1.63709ZM49.2691 30.0307L46.6776 34.3066L49.2691 35.8773L51.8606 34.3066L49.2691 30.0307ZM2.09766 1.44191L-1.15566 -2.35492L-6.39981 2.13853L-0.493853 5.7179L2.09766 1.44191ZM93.527 -2.6389L46.6776 25.7547L51.8606 34.3066L98.71 5.91308L93.527 -2.6389ZM51.8606 25.7547L4.68917 -2.83408L-0.493853 5.7179L46.6776 34.3066L51.8606 25.7547ZM5.35097 5.23874C5.52821 5.08687 5.74741 5 5.9996 5V-5C3.27209 -5 0.765252 -4.00086 -1.15566 -2.35492L5.35097 5.23874ZM5.9996 5H91.9996V-5H5.9996V5ZM91.9996 5C92.2677 5 92.5019 5.09892 92.6854 5.27222L99.5515 -1.99804C97.5858 -3.85452 94.921 -5 91.9996 -5V5Z" fill="#E3C67F" mask="url(#path-2-inside-1)"/>
</svg>
