<svg width="60" height="40" viewBox="0 0 60 40" fill="none" xmlns="http://www.w3.org/2000/svg">
<rect x="1" y="1" width="58" height="38" rx="5" stroke="#E3C67F" stroke-width="2"/>
<mask id="path-2-inside-1" fill="white">
<path d="M6.29609 1.09128L29.8617 17.2903L53.56 1C54.5023 1.19405 55.3398 1.55483 56 2.0325L29.8617 20L4 2.22268C4.60631 1.72153 5.39502 1.32835 6.29609 1.09128Z"/>
</mask>
<path d="M6.29609 1.09128L13.0938 -8.79768L8.56157 -11.9131L3.24287 -10.5138L6.29609 1.09128ZM29.8617 17.2903L23.064 27.1792L29.8617 31.852L36.6593 27.1792L29.8617 17.2903ZM53.56 1L55.9804 -10.7534L50.9743 -11.7843L46.7624 -8.88896L53.56 1ZM56 2.0325L62.7977 11.9215L76.8181 2.28384L63.0344 -7.68947L56 2.0325ZM29.8617 20L23.064 29.889L29.8617 34.5617L36.6593 29.889L29.8617 20ZM4 2.22268L-3.64515 -7.02673L-15.9017 3.10396L-2.79768 12.1116L4 2.22268ZM-0.501589 10.9802L23.064 27.1792L36.6593 7.40131L13.0938 -8.79768L-0.501589 10.9802ZM36.6593 27.1792L60.3577 10.889L46.7624 -8.88896L23.064 7.40131L36.6593 27.1792ZM51.1397 12.7534C50.6281 12.648 49.8464 12.3918 48.9656 11.7545L63.0344 -7.68947C60.8333 -9.28215 58.3766 -10.2599 55.9804 -10.7534L51.1397 12.7534ZM11.6452 11.4721C10.7271 12.2309 9.88622 12.5551 9.34931 12.6964L3.24287 -10.5138C0.903823 -9.89841 -1.51444 -8.78788 -3.64515 -7.02673L11.6452 11.4721ZM36.6593 29.889L62.7977 11.9215L49.2023 -7.85646L23.064 10.111L36.6593 29.889ZM-2.79768 12.1116L23.064 29.889L36.6593 10.111L10.7977 -7.66628L-2.79768 12.1116Z" fill="#E3C67F" mask="url(#path-2-inside-1)"/>
</svg>
