<svg width="42" height="40" viewBox="0 0 42 40" fill="none" xmlns="http://www.w3.org/2000/svg">
<path d="M14.5274 17.6658L14.5399 17.7268L14.5598 17.7858L14.7149 18.2441C15.8064 21.4706 17.792 24.3207 20.4404 26.4625L20.5079 26.5171L20.5839 26.5593L21.4088 27.0172C22.2483 27.4833 23.2268 27.6336 24.1675 27.4411C25.0905 27.2522 25.9273 26.7691 26.5523 26.0642L27.1402 25.4013C28.1783 25.0176 29.3586 25.2651 30.1434 26.0442L30.2339 26.1341L30.9385 25.4244L30.2339 26.1341C30.4834 26.3818 30.7107 26.6507 30.9133 26.938L33.9848 31.293C34.4359 31.9327 34.5008 32.768 34.1539 33.4697C34.0436 33.6927 33.8698 33.878 33.6544 34.0024L31.2467 35.3925L29.0385 36.2788C27.797 36.7772 26.402 36.7231 25.2028 36.1301L25.0994 36.079C23.7434 35.4086 22.4967 34.5369 21.4015 33.4935L19.4755 31.6587C15.9869 28.3354 13.0547 24.4734 10.7909 20.2203L9.50768 17.8095L7.97851 12.951C7.73717 12.1843 7.59078 11.3908 7.54262 10.5884L7.4067 8.32394C7.37527 7.80032 7.51452 7.28063 7.80355 6.84287C8.43801 5.88195 9.31095 5.1021 10.337 4.57956L13.7858 2.8233C13.9851 2.72179 14.2199 2.71662 14.4235 2.80925C15.6007 3.34481 16.6356 4.14959 17.4446 5.15866L17.7523 5.54248C18.0251 5.88267 18.2661 6.24715 18.4723 6.63134L20.0349 9.54313C20.2946 10.027 20.3066 10.606 20.0671 11.1001L20.967 11.5362L20.0671 11.1001C19.8717 11.5033 19.5366 11.8218 19.124 11.9965L17.7651 12.5715L16.7893 12.9016C16.2043 13.0995 15.6642 13.4113 15.2003 13.819C14.4351 14.4915 14.0888 15.5225 14.2931 16.5206L14.5274 17.6658Z" stroke="#E3C67F" stroke-width="2"/>
</svg>
