<svg width="33" height="31" viewBox="0 0 33 31" fill="none" xmlns="http://www.w3.org/2000/svg">
<path d="M11.3808 1.4567C12.3933 1.9173 13.2833 2.60944 13.9791 3.47728L14.2151 3.7717C14.4537 4.06923 14.6644 4.38801 14.8448 4.72403L16.0435 6.95761C16.3589 7.54542 16.3735 8.24883 16.0826 8.84917V8.84917C15.8516 9.32577 15.4555 9.70227 14.9677 9.90867L13.8992 10.3608L13.1237 10.6232C12.7709 10.7425 12.4452 10.9306 12.1654 11.1765V11.1765C11.7852 11.5106 11.6131 12.0229 11.7146 12.5189L11.8944 13.3973L12.0133 13.7489C12.804 16.0862 14.2424 18.1509 16.161 19.7024V19.7024L16.7938 20.0537C17.2776 20.3223 17.8416 20.409 18.3838 20.298V20.298V20.298C18.9292 20.1864 19.4237 19.9009 19.793 19.4844L20.3347 18.8736C20.3527 18.8533 20.3752 18.837 20.4001 18.8262V18.8262C21.5067 18.3463 22.806 18.5838 23.662 19.4336L23.7314 19.5026C23.9545 19.724 24.1578 19.9646 24.339 20.2215L26.6951 23.5621C27.2033 24.2826 27.2763 25.2235 26.8855 26.0139V26.0139C26.7338 26.3207 26.4947 26.5757 26.1983 26.7469L24.3042 27.8404L22.5598 28.5406C21.4049 29.0042 20.1073 28.9539 18.9917 28.4023V28.4023V28.4023C17.8297 27.8278 16.7613 27.0807 15.8227 26.1866L15.5224 25.9005C12.0497 22.5923 9.13078 18.7478 6.87722 14.514L6.58191 13.9592L5.38765 10.1648C5.18369 9.51678 5.05998 8.84621 5.01927 8.16809L4.91501 6.43108C4.88096 5.86375 5.03183 5.30067 5.34499 4.82638V4.82638C5.90481 3.9785 6.67505 3.2904 7.58043 2.82934L10.2259 1.48215C10.5869 1.2983 11.012 1.28893 11.3808 1.4567V1.4567Z" fill="#E3C67F"/>
</svg>
