<svg width="21" height="20" viewBox="0 0 21 20" fill="none" xmlns="http://www.w3.org/2000/svg">
<path d="M7.15568 0.915727C7.79215 1.20528 8.35165 1.64038 8.78904 2.18593L8.93743 2.37101C9.08739 2.55805 9.21988 2.75845 9.33325 2.96968L10.0868 4.37378C10.2851 4.7433 10.2942 5.18548 10.1114 5.56288V5.56288C9.96619 5.86248 9.71715 6.09917 9.41054 6.22891L8.73883 6.51317L8.25136 6.67807C8.02955 6.75311 7.8248 6.87132 7.64891 7.02589V7.02589C7.40988 7.23596 7.30174 7.55801 7.36553 7.86977L7.47853 8.42197L7.55331 8.64301C8.05036 10.1123 8.95457 11.4102 10.1607 12.3856V12.3856L10.5584 12.6064C10.8626 12.7753 11.2172 12.8297 11.558 12.76V12.76V12.76C11.9008 12.6898 12.2117 12.5104 12.4439 12.2485L12.7844 11.8645C12.7957 11.8518 12.8098 11.8416 12.8255 11.8348V11.8348C13.5212 11.5331 14.3379 11.6824 14.8761 12.2166L14.9197 12.26C15.0599 12.3992 15.1877 12.5504 15.3016 12.7119L16.7827 14.8119C17.1022 15.2649 17.1481 15.8563 16.9025 16.3532V16.3532C16.8071 16.5461 16.6568 16.7064 16.4705 16.814L15.2798 17.5014L14.1831 17.9416C13.4572 18.233 12.6414 18.2014 11.9402 17.8546V17.8546V17.8546C11.2097 17.4934 10.538 17.0238 9.94798 16.4617L9.75921 16.2819C7.57615 14.2023 5.74125 11.7855 4.32459 9.12396L4.13895 8.77519L3.38819 6.38991C3.25998 5.98256 3.18221 5.56102 3.15662 5.13473L3.09108 4.04279C3.06967 3.68614 3.16452 3.33218 3.36138 3.03402V3.03402C3.71329 2.50102 4.1975 2.06845 4.76665 1.77861L6.42968 0.931726C6.65662 0.816155 6.92386 0.810266 7.15568 0.915727V0.915727Z" fill="#2D4244"/>
</svg>
