<svg width="25" height="25" viewBox="0 0 25 25" fill="none" xmlns="http://www.w3.org/2000/svg">
<g clip-path="url(#clip0)">
<path d="M13.9857 24.3839L24.3849 13.9847C25.205 13.1646 25.205 11.8343 24.3849 11.0141C23.5647 10.1939 22.2344 10.1939 21.4142 11.0141L12.5014 19.927L3.58864 11.0141C2.76844 10.1939 1.43822 10.1939 0.618025 11.0141C-0.202168 11.8343 -0.202168 13.1646 0.618025 13.9847L11.0172 24.3839C11.8353 25.2041 13.1655 25.2041 13.9857 24.3839ZM14.6154 11.8801L23.3169 3.6241C24.1902 2.79451 24.1902 1.4508 23.3169 0.621215C22.4437 -0.208374 21.027 -0.208374 20.1527 0.621215L13.0333 7.37635L5.91389 0.621215C5.04059 -0.208374 3.62299 -0.208374 2.7497 0.621215C1.8764 1.4508 1.8764 2.79451 2.7497 3.6241L11.4512 11.8801C12.3245 12.7097 13.7411 12.7097 14.6154 11.8801Z" fill="#FCF9F2"/>
</g>
<defs>
<clipPath id="clip0">
<rect width="25" height="25" fill="white" transform="translate(25) rotate(90)"/>
</clipPath>
</defs>
</svg>
